# xmcd
#
# Track frame offsets:
#	150
#	10439
#	28202
#	44760
#	56054
#	65657
#	78452
#	95935
#	107209
#	130443
#	145525
#	159076
#	173209
#	189621
#	210039
#	222105
#
# Disc length: 3124 seconds
#
# Revision: 0
# Processed by: cddbd v1.5.2PL0 Copyright (c) Steve Scherf et al.
# Submitted via: dBpowerAMP V4.0
#
DISCID=ea0c3210
DTITLE=Na na NaThe Touch - Nederbeat now!
DYEAR=2003
DGENRE=Blues
TTITLE0=Appleknockers flophouse
TTITLE1=Sound of the screaming day
TTITLE2=I still got you
TTITLE3=Wild time
TTITLE4=Bad bad baby
TTITLE5=Be mine again
TTITLE6=Holyholy life
TTITLE7=Wasted words
TTITLE8=I go to move
TTITLE9=The life I live
TTITLE10=Filthy rich
TTITLE11=Keep on trying
TTITLE12=Can't you here me howling
TTITLE13=LB boogie
TTITLE14=Somebody will know someday
TTITLE15=Margio
EXTD=
EXTT0=
EXTT1=
EXTT2=
EXTT3=
EXTT4=
EXTT5=
EXTT6=
EXTT7=
EXTT8=
EXTT9=
EXTT10=
EXTT11=
EXTT12=
EXTT13=
EXTT14=
EXTT15=
PLAYORDER=
